PathFileType	4	(X/Y/Z)	/Users/itak/Documents/Research/Walk-IL/dataset/trc/00132_00007.trc
DataRate	CameraRate	NumFrames	NumMarkers	Units	OrigDataRate	OrigDataStartFrame	OrigNumFrames
100.000000	100.000000	4	53	mm	100.000000	373	747
Frame#	Time	RPSI			LPSI			L3			STRN			T10			C7			CLAV			RBAK			LBAK			LSHO			LUPA			LAEL			LAOL			LWTS			LWPS			LFRA			LIFD			LHPS			LHTS			RSHO			RUPA			RAEL			RAOL			RWTS			RWPS			RFRA			RIFD			RHTS			RHPS			RBHD			LFHD			RFHD			LBHD			LHIP			RHIP			RASI			LASI			LKNE			LTHI			LANK			LTIP			LTOE			LMT1			LMT5			LHEE			RKNE			RTHI			RANK			RTIP			RTOE			RMT1			RMT5			RHEE			
		X1	Y1	Z1	X2	Y2	Z2	X3	Y3	Z3	X4	Y4	Z4	X5	Y5	Z5	X6	Y6	Z6	X7	Y7	Z7	X8	Y8	Z8	X9	Y9	Z9	X10	Y10	Z10	X11	Y11	Z11	X12	Y12	Z12	X13	Y13	Z13	X14	Y14	Z14	X15	Y15	Z15	X16	Y16	Z16	X17	Y17	Z17	X18	Y18	Z18	X19	Y19	Z19	X20	Y20	Z20	X21	Y21	Z21	X22	Y22	Z22	X23	Y23	Z23	X24	Y24	Z24	X25	Y25	Z25	X26	Y26	Z26	X27	Y27	Z27	X28	Y28	Z28	X29	Y29	Z29	X30	Y30	Z30	X31	Y31	Z31	X32	Y32	Z32	X33	Y33	Z33	X34	Y34	Z34	X35	Y35	Z35	X36	Y36	Z36	X37	Y37	Z37	X38	Y38	Z38	X39	Y39	Z39	X40	Y40	Z40	X41	Y41	Z41	X42	Y42	Z42	X43	Y43	Z43	X44	Y44	Z44	X45	Y45	Z45	X46	Y46	Z46	X47	Y47	Z47	X48	Y48	Z48	X49	Y49	Z49	X50	Y50	Z50	X51	Y51	Z51	X52	Y52	Z52	X53	Y53	Z53	

374	3.73	-240.0731811523438	1104.4228515625	-308.9071044921875	-281.6426391601562	1125.24755859375	-436.6423950195312	-269.0711364746094	1156.263061523438	-371.9548034667969	-41.82595062255859	1348.4033203125	-443.6827392578125	-287.8459777832031	1312.677001953125	-359.0816955566406	-233.9090423583984	1601.716064453125	-383.7618713378906	-65.40697479248047	1486.147583007812	-435.9837951660156	-271.697509765625	1419.376708984375	-284.44970703125	-275.0387878417969	1587.132202148438	-479.6836242675781	-213.1150360107422	1572.812133789062	-570.2731323242188	-260.2896118164062	1452.678588867188	-644.2933349609375	-265.3978881835938	1241.743041992188	-705.2265625	-310.965087890625	1220.756713867188	-634.0530395507812	-182.1869659423828	977.4676513671875	-739.0696411132812	-271.1220703125	960.408935546875	-742.7215576171875	-261.4101867675781	1128.320678710938	-733.2963256835938	-187.4379577636719	783.1151733398438	-746.684326171875	-252.1672210693359	885.4246826171875	-764.84130859375	-181.0316314697266	890.14501953125	-769.2742309570312	-126.0804748535156	1573.876220703125	-230.5188751220703	-127.4297103881836	1501.660888671875	-163.8636627197266	-160.2794799804688	1210.529663085938	-133.8216705322266	-196.0276794433594	1211.427734375	-223.3870849609375	-55.19512557983398	954.140380859375	-184.0518646240234	-117.8207931518555	944.9927978515625	-131.931884765625	-141.3707275390625	1135.160278320312	-124.3796234130859	-56.91021728515625	758.1675415039062	-201.9854888916016	-35.98212051391602	843.38134765625	-183.5201416015625	-91.7283935546875	842.5025024414062	-135.1289672851562	-169.2969207763672	1760.442016601562	-314.5625	-30.8296012878418	1831.446533203125	-473.130859375	-4.597694396972656	1817.4345703125	-346.0101623535156	-205.4804229736328	1779.220092773438	-444.3387145996094	-238.240966796875	1048.669921875	-578.9381713867188	-78.91639709472656	1000.202026367188	-253.5469665527344	-24.81704711914062	1081.918334960938	-324.9761962890625	-118.1986694335938	1103.063354492188	-573.6329956054688	-181.0142364501953	544.3912963867188	-609.3732299804688	-220.5526885986328	690.6743774414062	-611.7374877929688	-286.5181579589844	33.49184799194336	-584.2846069335938	-281.5234375	293.3663024902344	-606.4417724609375	-48.44462966918945	34.59863662719727	-619.5999145507812	-113.2628479003906	41.2108154296875	-557.6528930664062	-181.7726745605469	33.13309097290039	-655.9804077148438	-327.3950500488281	35.68505096435547	-500.6460266113281	56.42692565917969	550.920654296875	-416.8382568359375	-9.683614730834961	807.6190795898438	-320.7180480957031	-276.7503051757812	156.3817138671875	-296.6572265625	-14.94435214996338	435.4428100585938	-381.3312683105469	-112.6656265258789	67.90715789794922	-424.8323059082031	-182.8021087646484	75.17245483398438	-442.7521057128906	-164.0648651123047	90.28703308105469	-324.5692749023438	-337.6056823730469	189.9763031005859	-323.9095458984375	
375	3.74	-234.6571197509766	1104.603637695312	-313.540771484375	-275.1268005371094	1125.29345703125	-441.6078186035156	-263.2217712402344	1156.34912109375	-376.974365234375	-35.02737426757812	1348.309692382812	-446.7348937988281	-281.9792785644531	1312.817749023438	-364.6930541992188	-227.4041900634766	1601.837158203125	-389.0165100097656	-58.47087478637695	1486.073120117188	-439.1818542480469	-266.6214294433594	1419.516235351562	-290.1114501953125	-267.3958740234375	1587.303100585938	-485.3888549804688	-204.4950714111328	1572.959350585938	-575.1246948242188	-250.2968292236328	1453.03076171875	-650.1453247070312	-253.0539245605469	1242.482666015625	-712.759521484375	-299.7464294433594	1220.65234375	-642.6165771484375	-166.2209014892578	979.5057983398438	-746.9411010742188	-254.9529113769531	961.3695068359375	-752.3240966796875	-247.3793640136719	1129.320556640625	-741.5374145507812	-169.0783996582031	785.1246948242188	-756.03515625	-234.6937103271484	886.7410888671875	-774.6023559570312	-163.4581451416016	892.5030517578125	-777.6217041015625	-121.4672393798828	1573.767944335938	-234.4586181640625	-123.8932037353516	1501.604125976562	-167.8973083496094	-158.0821380615234	1210.6572265625	-137.96728515625	-192.4505157470703	1211.569946289062	-227.8880920410156	-53.26058959960938	953.875244140625	-186.6562957763672	-116.4730606079102	944.9641723632812	-135.2818298339844	-139.4698791503906	1135.242919921875	-128.2125396728516	-55.41545867919922	757.9258422851562	-204.6904754638672	-34.48608779907227	843.0418090820312	-185.9382019042969	-90.66758728027344	842.3485107421875	-138.1676483154297	-163.3595428466797	1760.508056640625	-319.0382080078125	-22.21288299560547	1831.171264648438	-475.666015625	2.072911500930786	1816.853759765625	-348.150634765625	-197.7012329101562	1779.622924804688	-449.4015502929688	-230.9285736083984	1048.346801757812	-583.3408203125	-73.78543853759766	1000.86474609375	-256.7008361816406	-19.12033462524414	1082.185424804688	-328.04931640625	-110.6682586669922	1102.760131835938	-577.430908203125	-179.1671447753906	543.7142944335938	-611.1787109375	-217.0467376708984	690.3488159179688	-614.128173828125	-286.4279174804688	33.61713790893555	-584.1904907226562	-280.5701293945312	293.2794494628906	-607.193359375	-48.37700653076172	34.56483459472656	-619.7581787109375	-113.179801940918	41.11261749267578	-557.6141357421875	-181.7218933105469	33.15113067626953	-655.9490356445312	-327.1038208007812	35.75065994262695	-500.664306640625	68.86085510253906	554.1688842773438	-418.6603698730469	-1.696934580802917	809.6071166992188	-322.2183532714844	-255.5216369628906	147.9869689941406	-312.7748413085938	-0.8255483508110046	436.4502563476562	-386.1536865234375	-83.80381774902344	68.07862854003906	-437.0557861328125	-153.7073822021484	72.85395050048828	-456.8165588378906	-139.1206665039062	87.38693237304688	-338.0038452148438	-316.9440612792969	179.3938598632812	-341.2508850097656	
376	3.75	-229.1345520019531	1104.694091796875	-318.0588989257812	-268.5987854003906	1125.231689453125	-446.4244689941406	-257.3411560058594	1156.3203125	-381.8317565917969	-28.21424674987793	1348.094116210938	-449.7688903808594	-276.0085144042969	1312.858764648438	-370.1360778808594	-220.8384246826172	1601.861328125	-394.1431579589844	-51.52000427246094	1485.871948242188	-442.3107604980469	-261.4406433105469	1419.53857421875	-295.6469421386719	-259.7303771972656	1587.370239257812	-490.9490966796875	-195.8778076171875	1572.971557617188	-579.8426513671875	-240.3365020751953	1453.239135742188	-655.7944946289062	-240.7462310791016	1243.10205078125	-719.9788818359375	-288.4828186035156	1220.416015625	-650.8535766601562	-150.1769256591797	981.5123291015625	-754.4607543945312	-238.6273956298828	962.2615356445312	-761.5238037109375	-233.3333435058594	1130.223266601562	-749.4315185546875	-150.4164733886719	787.1716918945312	-765.0553588867188	-217.0194549560547	888.03173828125	-783.9676513671875	-145.748779296875	894.875244140625	-785.58203125	-116.7477111816406	1573.5419921875	-238.3266906738281	-120.2204055786133	1501.409301757812	-171.8799133300781	-155.6746215820312	1210.643920898438	-142.1759490966797	-188.7156219482422	1211.573120117188	-232.4793243408203	-51.16388320922852	953.45166015625	-189.3524017333984	-114.9468612670898	944.8067626953125	-138.7275543212891	-137.3705749511719	1135.187133789062	-132.1263885498047	-53.80910873413086	757.5148315429688	-207.4207305908203	-32.84683990478516	842.5419921875	-188.4182739257812	-89.47492218017578	842.06494140625	-141.2776184082031	-157.3745422363281	1760.428588867188	-323.4089050292969	-13.6496000289917	1830.790893554688	-477.9964904785156	8.792195320129395	1816.205078125	-350.1837158203125	-189.8703155517578	1779.890258789062	-454.3208923339844	-223.6917266845703	1047.927734375	-587.6244506835938	-68.54814147949219	1001.418273925781	-259.8907470703125	-13.30984973907471	1082.3046875	-331.1683654785156	-103.2207489013672	1102.364013671875	-581.1788330078125	-177.3458099365234	543.013671875	-612.9608764648438	-213.5700836181641	689.9852905273438	-616.4569091796875	-286.3463134765625	33.74935150146484	-584.070556640625	-279.6689453125	293.204345703125	-607.8444213867188	-48.30494689941406	34.52988433837891	-619.9051513671875	-113.0805206298828	41.01912307739258	-557.5712890625	-181.6741485595703	33.16610717773438	-655.912353515625	-326.7975769042969	35.82299423217773	-500.6601257324219	80.85850524902344	557.049072265625	-419.9244384765625	6.132979393005371	811.3880004882812	-323.4727172851562	-233.5458831787109	139.2559509277344	-328.7070007324219	13.06544589996338	437.0780029296875	-390.4665832519531	-54.40408325195312	68.39456939697266	-448.4541931152344	-123.8338317871094	70.65874481201172	-470.2581787109375	-113.7521743774414	84.31790924072266	-350.8941650390625	-295.4576416015625	168.4208984375	-358.5885314941406	
377	3.76	-223.5012359619141	1104.699584960938	-322.4700012207031	-262.0372009277344	1125.063232421875	-451.0991821289062	-251.41943359375	1156.188232421875	-386.5330505371094	-21.38161659240723	1347.766723632812	-452.7811889648438	-269.9417724609375	1312.80908203125	-375.4120788574219	-214.2098388671875	1601.7939453125	-399.1326599121094	-44.55721664428711	1485.555908203125	-445.3711853027344	-256.1513061523438	1419.454711914062	-301.0457763671875	-252.0493011474609	1587.341064453125	-496.357666015625	-187.2694854736328	1572.863647460938	-584.422119140625	-230.4211730957031	1453.31591796875	-661.2427368164062	-228.4737091064453	1243.61083984375	-726.87548828125	-277.1615295410156	1220.059448242188	-658.7471313476562	-134.0733337402344	983.495849609375	-761.607421875	-222.1735229492188	963.1000366210938	-770.3020629882812	-219.2828674316406	1131.033081054688	-756.9678955078125	-131.5037078857422	789.2703857421875	-773.7266845703125	-199.1782989501953	889.3162231445312	-792.9185180664062	-127.9329071044922	897.2664184570312	-793.1605224609375	-111.9080429077148	1573.210327148438	-242.1208801269531	-116.3908615112305	1501.087890625	-175.7991638183594	-153.0525512695312	1210.50244140625	-146.4484558105469	-184.8040771484375	1211.454223632812	-237.1596527099609	-48.90163803100586	952.8845825195312	-192.1256866455078	-113.2512359619141	944.5294799804688	-142.2716674804688	-135.0768280029297	1135.00244140625	-136.1158142089844	-52.07799911499023	756.9551391601562	-210.1718597412109	-31.05370330810547	841.9002685546875	-190.9402465820312	-88.15022277832031	841.6678466796875	-144.4581146240234	-151.3392181396484	1760.20947265625	-327.6731567382812	-5.13266658782959	1830.311157226562	-480.1280212402344	15.56477165222168	1815.49658203125	-352.1119995117188	-181.9745178222656	1780.020385742188	-459.0828552246094	-216.4965362548828	1047.417114257812	-591.7966918945312	-63.19929504394531	1001.859558105469	-263.1148071289062	-7.398749351501465	1082.289306640625	-334.3194274902344	-95.83238983154297	1101.88916015625	-584.8828735351562	-175.4997406005859	542.2932739257812	-614.6939086914062	-210.0710144042969	689.5806884765625	-618.7069702148438	-286.2710876464844	33.89443206787109	-583.9241943359375	-278.791015625	293.144287109375	-608.4028930664062	-48.23226165771484	34.49142074584961	-620.045654296875	-112.9584503173828	40.93400573730469	-557.5267944335938	-181.6299591064453	33.17950439453125	-655.8678588867188	-326.5438232421875	35.92762756347656	-500.6154479980469	92.39015197753906	559.5419311523438	-420.7061767578125	13.7933874130249	812.9527587890625	-324.5268249511719	-210.8256378173828	130.3240966796875	-344.3892517089844	26.71762657165527	437.3326416015625	-394.32275390625	-24.57907295227051	68.86380767822266	-458.9606628417969	-93.29802703857422	68.60381317138672	-482.9653015136719	-87.99900817871094	81.173828125	-363.1669616699219	-273.1181335449219	157.2259674072266	-375.843994140625	
